<?xml version="1.0" encoding="utf-8"?>
<!-- Generator: Adobe Illustrator 27.9.0, SVG Export Plug-In . SVG Version: 6.00 Build 0)  -->
<svg version="1.1" id="Layer_1" xmlns="http://www.w3.org/2000/svg" xmlns:xlink="http://www.w3.org/1999/xlink" x="0px" y="0px"
	 viewBox="0 0 36 36" style="enable-background:new 0 0 36 36;" xml:space="preserve">
<style type="text/css">
	.st0{fill-rule:evenodd;clip-rule:evenodd;fill:#FFFFFF;}
</style>
<path class="st0" d="M21.7,0.5c0.6-0.3,1.3-0.1,1.7,0.4l6.1,8.9c0.2,0.3,0.3,0.6,0.2,1l-3.9,21.3c0,0.1-0.1,0.3-0.1,0.4l-1.2,2.3
	c-0.3,0.6-1,0.8-1.6,0.6l-9.1-3c-0.4-0.1-0.7-0.4-0.8-0.7l-6.6-15c-0.2-0.4-0.1-0.8,0-1.1l4.5-9.5c0.1-0.3,0.3-0.5,0.6-0.6
	C11.5,5.6,21.7,0.5,21.7,0.5z M11.4,11.5l-2.3,4.9l3.3,7.4l-0.7-10.4L11.4,11.5z M14.7,20l0.7,10.4l5.2,1.7L14.7,20L14.7,20z
	 M23.2,31.3l3.7-20l-5.3-3.2l-7,5.6L23.2,31.3L23.2,31.3z M14,10.8l6.3-5l0.3-1.7l-7,3.5L14,10.8L14,10.8z M23.1,5.1l-0.1,0.7l1,0.6
	L23.1,5.1z"/>
</svg>
