<?xml version="1.0" encoding="utf-8"?>
<!-- Generator: Adobe Illustrator 24.0.1, SVG Export Plug-In . SVG Version: 6.00 Build 0)  -->
<svg version="1.1" id="Layer_1" xmlns="http://www.w3.org/2000/svg" xmlns:xlink="http://www.w3.org/1999/xlink" x="0px" y="0px"
	 viewBox="0 0 36 36" style="enable-background:new 0 0 36 36;" xml:space="preserve">
<style type="text/css">
	.st0{fill:#675F58;}
	.st1{fill:#CCCCCC;}
	.st2{fill:#FF931E;}
</style>
<title>folder_type_template</title>
<g>
	<path class="st0" d="M21.6,5.1c-0.2,0-0.4,0.1-0.5,0.2c-0.1,0.1-0.2,0.3-0.2,0.5v1.9c0,0.2,0.1,0.4,0.2,0.5
		c0.1,0.1,0.3,0.2,0.5,0.2c0.2,0,0.4-0.1,0.5-0.2c0.1-0.1,0.2-0.3,0.2-0.5V5.8c0-0.2-0.1-0.4-0.2-0.5C22,5.2,21.8,5.1,21.6,5.1z
		 M21.9,7c-0.1,0.1-0.2,0.1-0.3,0.1S21.4,7,21.3,7s-0.1-0.2-0.1-0.3c0-0.1,0-0.2,0.1-0.3s0.2-0.1,0.3-0.1s0.2,0,0.3,0.1
		S22,6.6,22,6.7C22,6.8,22,6.9,21.9,7z"/>
	<path class="st0" d="M32.3,4H3.6C1.7,4,0.3,5.4,0.3,7.3v21.5c0,1.8,1.5,3.3,3.3,3.3h28.9c1.8,0,3.3-1.5,3.3-3.3V7.4
		C35.6,5.5,34.1,4,32.3,4z M15.6,8.9h-0.8l-0.3-3.1c0-0.1,0-0.3,0-0.4s0-0.3,0-0.4c0,0.1,0,0.2,0,0.4c0,0.2,0,0.3,0,0.4l-0.4,3.1
		h-0.8l-0.5-4.4h0.6l0.3,3.1c0,0.1,0,0.2,0,0.4c0,0.2,0,0.3,0,0.4c0-0.1,0-0.3,0-0.4s0-0.3,0-0.4l0.4-3.1h0.6l0.4,3.1
		c0,0.1,0,0.2,0,0.4c0,0.2,0,0.3,0,0.4c0-0.1,0-0.3,0-0.4c0-0.2,0-0.3,0-0.4l0.3-3.1h0.6L15.6,8.9z M19.4,7.7c0,0.4-0.1,0.7-0.4,0.9
		C18.8,8.9,18.4,9,18,9c-0.4,0-0.8-0.1-1-0.3c-0.3-0.2-0.4-0.5-0.4-0.9h0.8c0,0.2,0.1,0.3,0.2,0.4c0.1,0.1,0.3,0.2,0.5,0.2
		c0.2,0,0.4-0.1,0.5-0.2s0.2-0.3,0.2-0.5V7.4c0-0.2-0.1-0.4-0.2-0.5c-0.1-0.1-0.3-0.2-0.5-0.2h-1.3V4.5h2.5v0.7h-1.8l0,0.9H18
		c0.4,0,0.8,0.1,1,0.3s0.4,0.5,0.4,1V7.7z M23,7.7c0,0.3-0.1,0.5-0.2,0.7c-0.1,0.2-0.3,0.4-0.5,0.5C22.2,8.9,21.9,9,21.6,9
		s-0.5-0.1-0.7-0.2c-0.2-0.1-0.4-0.3-0.5-0.5c-0.1-0.2-0.2-0.4-0.2-0.7V5.8c0-0.3,0.1-0.5,0.2-0.7s0.3-0.4,0.5-0.5
		c0.2-0.1,0.5-0.2,0.7-0.2s0.5,0.1,0.7,0.2c0.2,0.1,0.4,0.3,0.5,0.5C23,5.3,23,5.5,23,5.8V7.7z"/>
</g>
<g>
	<path class="st1" d="M33.9,28.7c0,0.8-0.7,1.6-1.6,1.6H3.6c-0.8,0-1.6-0.7-1.6-1.6V9.5h31.9V28.7L33.9,28.7z"/>
	<rect x="8.4" y="21" class="st2" width="4.7" height="4.7"/>
	<rect x="8.4" y="14" class="st2" width="4.7" height="4.7"/>
	<rect x="15.6" y="14" class="st2" width="4.7" height="4.7"/>
	<rect x="22.7" y="14" class="st2" width="4.7" height="4.7"/>
	<rect x="15.6" y="21" class="st2" width="4.7" height="4.7"/>
	<rect x="22.7" y="21" class="st2" width="4.7" height="4.7"/>
</g>
</svg>
