<?xml version="1.0" encoding="utf-8"?>
<!-- Generator: Adobe Illustrator 27.9.0, SVG Export Plug-In . SVG Version: 6.00 Build 0)  -->
<svg version="1.1" id="Layer_1" xmlns="http://www.w3.org/2000/svg" xmlns:xlink="http://www.w3.org/1999/xlink" x="0px" y="0px"
	 viewBox="0 0 36 36" style="enable-background:new 0 0 36 36;" xml:space="preserve">
<style type="text/css">
	.st0{fill:#FFFFFF;}
</style>
<path class="st0" d="M18,34.8C8.7,34.8,1.2,27.3,1.2,18S8.7,1.2,18,1.2S34.8,8.7,34.8,18S27.3,34.8,18,34.8z M25.7,10.8
	c-0.7-0.5-1.7-0.4-2.2,0.3l-7.8,10.8l-3.4-3.4c-0.6-0.6-1.6-0.6-2.2,0c-0.6,0.6-0.6,1.6,0,2.2l4.7,4.7c0.3,0.3,0.8,0.5,1.2,0.5
	c0.5,0,0.9-0.3,1.1-0.6L26.1,13C26.6,12.3,26.4,11.3,25.7,10.8z"/>
</svg>
