<?xml version="1.0" encoding="utf-8"?>
<!-- Generator: Adobe Illustrator 27.9.0, SVG Export Plug-In . SVG Version: 6.00 Build 0)  -->
<svg version="1.1"
	 id="svg8" xmlns:svg="http://www.w3.org/2000/svg" xmlns:dc="http://purl.org/dc/elements/1.1/" xmlns:rdf="http://www.w3.org/1999/02/22-rdf-syntax-ns#" xmlns:sodipodi="http://sodipodi.sourceforge.net/DTD/sodipodi-0.dtd" xmlns:inkscape="http://www.inkscape.org/namespaces/inkscape" xmlns:cc="http://creativecommons.org/ns#"
	 xmlns="http://www.w3.org/2000/svg" xmlns:xlink="http://www.w3.org/1999/xlink" x="0px" y="0px" viewBox="0 0 36 36"
	 style="enable-background:new 0 0 36 36;" xml:space="preserve">
<style type="text/css">
	.st0{fill:#FFFFFF;}
</style>
<sodipodi:namedview  bordercolor="#666666" borderopacity="1.0" id="base" inkscape:current-layer="layer1" inkscape:cx="88.377822" inkscape:cy="120.83262" inkscape:document-rotation="0" inkscape:document-units="mm" inkscape:object-nodes="false" inkscape:pageopacity="0" inkscape:pageshadow="2" inkscape:snap-midpoints="true" inkscape:snap-nodes="false" inkscape:snap-object-midpoints="true" inkscape:snap-others="true" inkscape:window-height="1027" inkscape:window-maximized="1" inkscape:window-width="1920" inkscape:window-x="-8" inkscape:window-y="-8" inkscape:zoom="2.59375" pagecolor="#202020" showgrid="true" units="px">
	<inkscape:grid  empspacing="16" id="grid833" type="xygrid"></inkscape:grid>
</sodipodi:namedview>
<g id="layer1" inkscape:groupmode="layer" inkscape:label="Exclamation">
	
		<path id="path6144" inkscape:connector-curvature="0" sodipodi:nodetypes="ccccccccccccccccccccccccccccccccccccccccc" class="st0" d="
		M17.9,1.8c-1,0-1.8,0.6-2.3,1.4L0.8,30.1c-1,1.8,0.3,4.1,2.4,4.1h29.7c2.1,0,3.4-2.2,2.4-4.1L20.4,3.2C19.9,2.3,18.9,1.8,17.9,1.8z
		 M17.9,2.9L17.9,2.9c0.6,0,1.2,0.3,1.5,0.8l14.8,27c0.6,1.1-0.2,2.4-1.4,2.4H3.1c-1.2,0-2-1.3-1.4-2.4l14.9-27
		C16.8,3.2,17.4,2.9,17.9,2.9L17.9,2.9z M18,3.4c-0.4,0-0.7,0.2-0.9,0.6L2.2,31c-0.4,0.7,0.1,1.6,1,1.6h29.7c0.8,0,1.4-0.9,1-1.6
		L19,4C18.8,3.6,18.4,3.4,18,3.4L18,3.4L18,3.4z M16.9,11.7h2.2c0.3,0,0.6,0.2,0.6,0.5l-0.5,12.1c0,0.3-0.3,0.5-0.6,0.5h-1.1
		c-0.3,0-0.6-0.2-0.6-0.5l-0.5-12.1C16.3,12,16.6,11.7,16.9,11.7z M18,26.3c0.9,0,1.6,0.7,1.6,1.6s-0.7,1.6-1.6,1.6
		s-1.6-0.7-1.6-1.6C16.3,27,17.1,26.3,18,26.3z"/>
</g>
</svg>
