<?xml version="1.0" encoding="utf-8"?>
<!-- Generator: Adobe Illustrator 27.9.0, SVG Export Plug-In . SVG Version: 6.00 Build 0)  -->
<svg version="1.1"
	 id="svg8" xmlns:svg="http://www.w3.org/2000/svg" xmlns:dc="http://purl.org/dc/elements/1.1/" xmlns:rdf="http://www.w3.org/1999/02/22-rdf-syntax-ns#" xmlns:sodipodi="http://sodipodi.sourceforge.net/DTD/sodipodi-0.dtd" xmlns:inkscape="http://www.inkscape.org/namespaces/inkscape" xmlns:cc="http://creativecommons.org/ns#"
	 xmlns="http://www.w3.org/2000/svg" xmlns:xlink="http://www.w3.org/1999/xlink" x="0px" y="0px" viewBox="0 0 36 36"
	 style="enable-background:new 0 0 36 36;" xml:space="preserve">
<style type="text/css">
	.st0{fill:#FFFFFF;}
</style>
<sodipodi:namedview  bordercolor="#666666" borderopacity="1.0" id="base" inkscape:current-layer="layer1" inkscape:cx="135.82144" inkscape:cy="124.57274" inkscape:document-rotation="0" inkscape:document-units="mm" inkscape:object-nodes="false" inkscape:pageopacity="0" inkscape:pageshadow="2" inkscape:snap-midpoints="true" inkscape:snap-nodes="false" inkscape:snap-object-midpoints="true" inkscape:snap-others="true" inkscape:window-height="1027" inkscape:window-maximized="1" inkscape:window-width="1920" inkscape:window-x="-8" inkscape:window-y="-8" inkscape:zoom="2.59375" pagecolor="#202020" showgrid="true" units="px">
	<inkscape:grid  empspacing="16" id="grid833" type="xygrid"></inkscape:grid>
</sodipodi:namedview>
<g id="layer1" inkscape:groupmode="layer" inkscape:label="Info">
	
		<path id="rect6452" inkscape:connector-curvature="0" sodipodi:nodetypes="sssccsssssssccssssssssccccccccccccssssscscccccccccccccccccccccc" class="st0" d="
		M6.3,1C3.2,1,0.7,3.5,0.7,6.6v16.2c0,2.9,2.2,5.3,5,5.5v-1.1c-2.2-0.3-3.9-2.1-3.9-4.4V6.6c0-2.5,2-4.5,4.5-4.5h23.4
		c2.5,0,4.5,2,4.5,4.5v16.2c0,2.5-2,4.5-4.5,4.5H14.2l-0.9,1.1h16.4c3.1,0,5.6-2.5,5.6-5.6V6.6c0-3.1-2.5-5.6-5.6-5.6L6.3,1z
		 M6.3,2.7c-2.2,0-3.9,1.7-3.9,3.9v16.2c0,2.2,1.7,3.9,3.9,3.9v0.6v1.1v0.6l0,5.6c0,0.5,0.7,0.8,1,0.4l0.1-0.2l5.2-6.3h0l1.4-1.7
		c0,0,0,0,0,0c0,0,0.1,0,0.1,0h15.5c2.2,0,3.9-1.7,3.9-3.9V6.6c0-2.2-1.7-3.9-3.9-3.9L6.3,2.7z M17.7,6c0.9,0,1.7,0.7,1.7,1.7
		s-0.7,1.7-1.7,1.7c-0.9,0-1.7-0.7-1.7-1.7C16,6.8,16.8,6,17.7,6z M18.6,11.3c0,0,0.1,0,0.1,0c0.4,0.1,0.7,0.4,0.7,0.8v8.9h1.4
		c0.3,0,0.6,0.2,0.6,0.6v0.6c0,0.3-0.2,0.6-0.6,0.6h-5.6c-0.3,0-0.6-0.2-0.6-0.6v-0.6c0-0.3,0.2-0.6,0.6-0.6h1.4V13h-1.4
		c-0.3,0-0.6-0.2-0.6-0.6v-0.6c0-0.3,0.2-0.6,0.6-0.6L18.6,11.3z"/>
</g>
</svg>
