<?xml version="1.0" encoding="utf-8"?>
<!-- Generator: Adobe Illustrator 24.0.1, SVG Export Plug-In . SVG Version: 6.00 Build 0)  -->
<svg version="1.1" id="Capa_1" xmlns="http://www.w3.org/2000/svg" xmlns:xlink="http://www.w3.org/1999/xlink" x="0px" y="0px"
	 viewBox="0 0 36 36" style="enable-background:new 0 0 36 36;" xml:space="preserve">
<style type="text/css">
	.st0{fill:#FFFFFF;}
</style>
<g>
	<path class="st0" d="M0.6,26.2C2,20.5,6.1,12.6,18.6,11V6c0-1,0.6-2,1.6-2.4c1-0.4,2.1-0.2,2.8,0.6l11.4,11.4
		c1.3,1.3,1.3,3.5,0,4.8L23,31.9c-0.7,0.7-1.8,1-2.8,0.6s-1.6-1.3-1.6-2.4v-4.8c-4.3,0-10.4,0.6-14.8,3.3c-0.7,0.5-1.7,0.4-2.4-0.1
		C0.8,27.9,0.4,27,0.6,26.2z"/>
</g>
</svg>
