<?xml version="1.0" encoding="utf-8"?>
<!-- Generator: Adobe Illustrator 24.0.1, SVG Export Plug-In . SVG Version: 6.00 Build 0)  -->
<svg version="1.1" id="Layer_1" xmlns="http://www.w3.org/2000/svg" xmlns:xlink="http://www.w3.org/1999/xlink" x="0px" y="0px"
	 viewBox="0 0 36 36" style="enable-background:new 0 0 36 36;" xml:space="preserve">
<style type="text/css">
	.st0{fill:#E0E7EC;}
	.st1{fill:#66757F;}
	.st2{fill:#DD2F45;}
	.st3{fill:#F5F8FA;}
	.st4{fill:#F4ABBA;}
</style>
<g>
	<path class="st0" d="M34.2,30.6c0,2-1.6,3.6-3.6,3.6H5.4c-2,0-3.6-1.6-3.6-3.6V9.9c0-2,1.6-3.6,3.6-3.6h25.3c2,0,3.6,1.6,3.6,3.6
		V30.6z"/>
	<path class="st1" d="M23.1,19h-5.2c-1.1,0-1.5-0.7-1.5-1.4c0-0.7,0.4-1.4,1.5-1.4h7.4c1,0,1.5,0.9,1.5,1.5c0,0.4-0.2,0.8-0.5,1.3
		l-5.1,10.3c-0.6,1.1-0.8,1.5-1.7,1.5c-1.1,0-1.7-0.9-1.7-1.4c0-0.2,0.1-0.4,0.2-0.7L23.1,19z M11.6,18.9h-0.5c-1,0-1.4-0.7-1.4-1.4
		c0-0.7,0.5-1.4,1.4-1.4H13c0.9,0,1.4,0.6,1.4,1.4v11.6c0,1-0.5,1.6-1.4,1.6s-1.4-0.6-1.4-1.6L11.6,18.9z"/>
	<path class="st2" d="M32.4,1.8h-3c0.2,0.3,0.2,0.6,0.2,0.9c0,1-0.8,1.8-1.8,1.8s-1.8-0.8-1.8-1.8c0-0.3,0.1-0.6,0.2-0.9H9.6
		C9.8,2,9.9,2.3,9.9,2.7c0,1-0.8,1.8-1.8,1.8S6.3,3.7,6.3,2.7c0-0.3,0.1-0.6,0.2-0.9h-3c-1,0-1.8,0.8-1.8,1.8v9.9h32.5V3.6
		C34.2,2.6,33.4,1.8,32.4,1.8"/>
	<path class="st3" d="M13.7,5.9c0-0.5,0.3-0.7,0.7-0.7c0.4,0,0.7,0.3,0.7,0.7v4.5h1.6c0.5,0,0.7,0.3,0.6,0.6c0,0.3-0.3,0.6-0.6,0.6
		h-2.3c-0.4,0-0.7-0.3-0.7-0.7L13.7,5.9z M7.4,5.9c0-0.5,0.3-0.7,0.7-0.7c0.4,0,0.7,0.3,0.7,0.7v3.1c0,0.8,0.5,1.5,1.4,1.5
		c0.8,0,1.4-0.7,1.4-1.5V5.9c0-0.5,0.3-0.7,0.7-0.7s0.7,0.3,0.7,0.7v3.2c0,1.5-1.2,2.7-2.7,2.7c-1.5,0-2.7-1.1-2.7-2.7L7.4,5.9z
		 M6.7,9.9c0,1.5-1,1.9-1.8,1.9c-0.6,0-1.7-0.2-1.7-1c0-0.2,0.2-0.5,0.5-0.5c0.4,0,0.7,0.3,1.1,0.3c0.5,0,0.5-0.5,0.5-0.8V5.9
		c0-0.5,0.3-0.7,0.7-0.7c0.4,0,0.7,0.3,0.7,0.7V9.9z"/>
	<path class="st4" d="M30.6,10.8c0,0.5,0.4,0.9,0.9,0.9s0.9-0.4,0.9-0.9c0-0.5-0.4-0.9-0.9-0.9S30.6,10.3,30.6,10.8 M30.6,8.1
		C30.6,8.6,31,9,31.5,9s0.9-0.4,0.9-0.9c0-0.5-0.4-0.9-0.9-0.9S30.6,7.6,30.6,8.1 M27.9,10.8c0,0.5,0.4,0.9,0.9,0.9
		c0.5,0,0.9-0.4,0.9-0.9c0-0.5-0.4-0.9-0.9-0.9C28.3,9.9,27.9,10.3,27.9,10.8 M27.9,8.1c0,0.5,0.4,0.9,0.9,0.9
		c0.5,0,0.9-0.4,0.9-0.9c0-0.5-0.4-0.9-0.9-0.9C28.3,7.2,27.9,7.6,27.9,8.1 M25.2,10.8c0,0.5,0.4,0.9,0.9,0.9s0.9-0.4,0.9-0.9
		c0-0.5-0.4-0.9-0.9-0.9S25.2,10.3,25.2,10.8 M25.2,8.1c0,0.5,0.4,0.9,0.9,0.9S27,8.6,27,8.1c0-0.5-0.4-0.9-0.9-0.9
		S25.2,7.6,25.2,8.1 M22.5,8.1c0,0.5,0.4,0.9,0.9,0.9s0.9-0.4,0.9-0.9c0-0.5-0.4-0.9-0.9-0.9S22.5,7.6,22.5,8.1 M22.5,10.8
		c0,0.5,0.4,0.9,0.9,0.9s0.9-0.4,0.9-0.9c0-0.5-0.4-0.9-0.9-0.9S22.5,10.3,22.5,10.8"/>
</g>
</svg>
