<?xml version="1.0" encoding="utf-8"?>
<!-- Generator: Adobe Illustrator 27.9.0, SVG Export Plug-In . SVG Version: 6.00 Build 0)  -->
<svg version="1.1" id="mdi-application-edit" xmlns="http://www.w3.org/2000/svg" xmlns:xlink="http://www.w3.org/1999/xlink"
	 x="0px" y="0px" viewBox="0 0 36 36" style="enable-background:new 0 0 36 36;" xml:space="preserve">
<style type="text/css">
	.st0{fill:#FFFFFF;}
</style>
<path class="st0" d="M16.4,30l12.9-12.9c0.8-0.8,1.7-1.3,2.8-1.3c1.1,0,2,0.5,2.8,1.3l0.3,0.3V4.6c0-1.7-1.4-3.1-3.1-3.1H3.8
	c-1.7,0-3.1,1.4-3.1,3.1v25.2c0,1.7,1.4,3.1,3.1,3.1h12.6V30 M3.8,4.6h28.3v4.7H3.8V4.6 M32.2,18.9c-0.2,0-0.5,0.2-0.6,0.3L30,20.8
	l3.3,3.3l1.6-1.6c0.3-0.3,0.3-0.9,0-1.3l-2-2C32.6,19.1,32.5,18.9,32.2,18.9 M29.2,21.8l-9.6,9.4v3.3h3.3l9.6-9.6L29.2,21.8z"/>
</svg>
