<?xml version="1.0" encoding="utf-8"?>
<!-- Generator: Adobe Illustrator 27.9.0, SVG Export Plug-In . SVG Version: 6.00 Build 0)  -->
<svg version="1.1" id="Layer_1" xmlns="http://www.w3.org/2000/svg" xmlns:xlink="http://www.w3.org/1999/xlink" x="0px" y="0px"
	 viewBox="0 0 800 800" style="enable-background:new 0 0 800 800;" xml:space="preserve">
<style type="text/css">
	.st0{fill:#E04F5F;}
</style>
<g>
	<path class="st0" d="M391,308.5c-21.6,0-36.6,26.5-36.3,79.7c-0.3,51.6,14,78.4,36.3,78.4c23.5,0,35.9-28.7,35.9-79.7
		C427,337.6,415.2,308.5,391,308.5z"/>
	<path class="st0" d="M562.2,350.6l-38.9,58.2l-0.3,0.6h57.8v-57.8c0-12.1,0.3-24.5,1.3-36.9h-1.3
		C574.3,328.1,568.8,338.9,562.2,350.6z"/>
	<path class="st0" d="M212,350.6l-38.9,58.2l-0.3,0.6h57.8v-57.8c0-12.1,0.3-24.5,1.3-36.9h-1.3C224.1,328.1,218.5,338.9,212,350.6z
		"/>
	<path class="st0" d="M400,0C179.1,0,0,179.1,0,400s179.1,400,400,400s400-179.1,400-400S620.9,0,400,0z M296,439.8h-27.4v53.9
		h-37.9v-53.9h-96.1v-26.1l86.6-132.3h47.4v128.1H296V439.8z M389.7,497.3c-49,0-75.2-44.4-75.5-109.1c0-66,28.1-110.4,77.8-110.4
		c51.3,0,75.1,45.7,75.1,108.5C467.2,454.5,440.4,497.3,389.7,497.3z M646.2,439.8h-27.5v53.9h-37.9v-53.9h-96.1v-26.1l86.6-132.3
		h47.4v128.1h27.5V439.8z"/>
</g>
</svg>
