<?xml version="1.0" encoding="utf-8"?>
<!-- Generator: Adobe Illustrator 27.9.0, SVG Export Plug-In . SVG Version: 6.00 Build 0)  -->
<svg version="1.1" id="Layer_1" xmlns="http://www.w3.org/2000/svg" xmlns:xlink="http://www.w3.org/1999/xlink" x="0px" y="0px"
	 viewBox="0 0 36 36" style="enable-background:new 0 0 36 36;" xml:space="preserve">
<style type="text/css">
	.st0{fill-rule:evenodd;clip-rule:evenodd;fill:#FFFFFF;}
</style>
<path class="st0" d="M21.3,1.5h-6.7l-1.1,5.8L8.5,4L3.8,8.7l3.3,4.9l-5.8,1.1v6.7l5.8,1.1l-3.3,4.9L8.5,32l4.9-3.3l1.1,5.8h4.9
	c-0.8-0.7-1.6-1.5-2.2-2.4h-0.8l-0.7-3.4c-0.1-0.3-0.1-0.5-0.2-0.8l-0.3-1.4l-1.8-0.8L8.6,29l-2-2l3.2-4.8L9,20.4l-5.6-1.1v-2.8
	L9,15.4l0.8-1.8L6.9,8.9l2-2l4.8,3.2l1.8-0.8l1.1-5.6h2.8l1.1,5.6l1.8,0.8L27,7l2,2l-3.2,4.8l0.8,1.8l1.4,0.3c0.3,0,0.5,0.1,0.8,0.2
	l3.4,0.7v0.8c0.9,0.6,1.7,1.3,2.4,2.2v-5l-5.8-1.1l3.3-4.9l-4.7-4.7l-4.9,3.3L21.3,1.5z M17.9,13.2c2,0,3.8,1.2,4.5,3.1
	c-0.8,0.3-1.5,0.7-2.1,1.1c-0.3-1.3-1.6-2.1-2.9-1.8s-2.1,1.6-1.8,2.9c0.2,0.9,0.9,1.6,1.8,1.8c-0.5,0.7-0.8,1.4-1.1,2.1
	c-2.5-0.9-3.7-3.6-2.8-6.1C14.2,14.6,15.9,13.2,17.9,13.2z M21,19.9c3.5-3,8.7-2.6,11.7,0.9s2.6,8.7-0.9,11.7
	c-0.1,0.1-0.2,0.1-0.2,0.2c-3.6,2.8-8.8,2.2-11.7-1.4C17.1,27.9,17.6,22.8,21,19.9L21,19.9z M20.3,25.1v2.4h11.9v-2.4H20.3z"/>
</svg>
