<?xml version="1.0" encoding="utf-8"?>
<!-- Generator: Adobe Illustrator 27.9.0, SVG Export Plug-In . SVG Version: 6.00 Build 0)  -->
<svg version="1.1" id="mdi-exit-run" xmlns="http://www.w3.org/2000/svg" xmlns:xlink="http://www.w3.org/1999/xlink" x="0px"
	 y="0px" viewBox="0 0 36 36" style="enable-background:new 0 0 36 36;" xml:space="preserve">
<style type="text/css">
	.st0{fill:#FFFFFF;}
</style>
<path class="st0" d="M19.3,11.9c-1.5,0-2.7-1.2-2.7-2.7c0-1.5,1.2-2.7,2.7-2.7l0,0c1.5,0,2.7,1.2,2.7,2.7S20.8,11.9,19.3,11.9
	 M14.5,30.6l-9.4-1.9L5.6,26l6.6,1.4l2.1-10.9l-2.4,1V22H9.3v-6.3l7-3l1.1-0.1c1,0,1.7,0.5,2.3,1.4l1.4,2.1c1.1,1.9,3.2,3.2,5.8,3.2
	V22c-3,0-5.7-1.3-7.4-3.3l-0.8,4l2.8,2.7v10.1h-2.7v-8.1l-2.8-2.7L14.5,30.6 M31.5,35.5h-3.2V3.7H7.7v20.8l-3.2-0.7V0.5h27V35.5
	 M7.7,35.5H4.5v-5.1L7.7,31V35.5z"/>
</svg>
