<?xml version="1.0" encoding="utf-8"?>
<!-- Generator: Adobe Illustrator 24.0.1, SVG Export Plug-In . SVG Version: 6.00 Build 0)  -->
<svg version="1.1" id="Layer_1" xmlns="http://www.w3.org/2000/svg" xmlns:xlink="http://www.w3.org/1999/xlink" x="0px" y="0px"
	 viewBox="0 0 64 64" style="enable-background:new 0 0 64 64;" xml:space="preserve">
<style type="text/css">
	.st0{fill:#FFFFFF;}
</style>
<g id="SVGRepo_iconCarrier">
	<g>
		<path class="st0" d="M39.5,18.7c2.6,0,4.6-2.1,4.6-4.6c0-2.6-2.1-4.6-4.6-4.6c-2.6,0-4.6,2.1-4.6,4.6
			C34.9,16.6,36.9,18.7,39.5,18.7z"/>
		<path class="st0" d="M61,48.7l-6.8-4.4l-5.5-8.6l-1.8-10.2l5.9-0.5l5.1,3.3c0.7,0.4,1.6,0.3,2.1-0.3l0,0c0.6-0.7,0.5-1.7-0.1-2.3
			l-4.5-4c-0.5-0.4-1.1-0.7-1.8-0.7l-11.3-0.6c-0.3,0-0.7,0-0.7,0c-0.1,0-0.3,0-0.4,0.1c-0.8,0.1-1.6,0.5-2.2,1l-8.3,5l-5.2-2.9
			c-0.8-0.5-1.8-0.2-2.3,0.6L23,24c-0.2,0.4-0.3,0.9-0.2,1.3c0.1,0.4,0.4,0.8,0.8,1.1l6.2,3.7c0.8,0.5,1.7,0.5,2.6,0.2l5.3-2
			l1.8,7.1l-7.4,0c-1,0-1.9,0.4-2.5,1.2c-0.6,0.8-0.9,1.8-0.7,2.7l2,10.1c0.2,1.1,1.3,1.9,2.4,1.7l0.1,0c1.1-0.2,1.9-1.2,1.8-2.3
			l-0.7-7.2l10.3,0.3l4.8,4.9c0.7,0.7,1.4,1.3,2.3,1.7l7.2,3.9c1,0.5,2.2,0.1,2.8-0.8l0-0.1C62.3,50.5,62,49.2,61,48.7z"/>
		<polygon class="st0" points="16.4,14.7 6.8,8.2 31.3,8.2 31.3,4.4 2,4.4 2,53 6.8,53 16.4,59.6 16.4,57.7 16.4,53 28.1,53 
			28.1,49.3 16.4,49.3 		"/>
	</g>
</g>
</svg>
