<?xml version="1.0" encoding="utf-8"?>
<!-- Generator: Adobe Illustrator 27.9.0, SVG Export Plug-In . SVG Version: 6.00 Build 0)  -->
<svg version="1.1"
	 id="svg8" xmlns:sodipodi="http://sodipodi.sourceforge.net/DTD/sodipodi-0.dtd" xmlns:dc="http://purl.org/dc/elements/1.1/" xmlns:inkscape="http://www.inkscape.org/namespaces/inkscape" xmlns:cc="http://creativecommons.org/ns#" xmlns:svg="http://www.w3.org/2000/svg" xmlns:rdf="http://www.w3.org/1999/02/22-rdf-syntax-ns#" sodipodi:docname="file.svg"
	 xmlns="http://www.w3.org/2000/svg" xmlns:xlink="http://www.w3.org/1999/xlink" x="0px" y="0px" viewBox="0 0 36 36"
	 style="enable-background:new 0 0 36 36;" xml:space="preserve">
<style type="text/css">
	.st0{fill-rule:evenodd;clip-rule:evenodd;fill:#FFFFFF;}
</style>
<sodipodi:namedview  bordercolor="#666666" borderopacity="1.0" id="base" inkscape:current-layer="layer1" inkscape:cx="10.024391" inkscape:cy="11.490636" inkscape:document-rotation="0" inkscape:document-units="mm" inkscape:pageopacity="0" inkscape:pageshadow="2" inkscape:snap-object-midpoints="true" inkscape:window-height="1027" inkscape:window-maximized="1" inkscape:window-width="1920" inkscape:window-x="-8" inkscape:window-y="-8" inkscape:zoom="22.4" pagecolor="#202020" showgrid="true" units="px">
	<inkscape:grid  id="grid833" type="xygrid"></inkscape:grid>
</sodipodi:namedview>
<g id="layer1" inkscape:groupmode="layer" inkscape:label="file">
	
		<path id="file" inkscape:connector-curvature="0" inkscape:label="file" sodipodi:nodetypes="ccccccccccccccccccccccc" class="st0" d="
		M16.7,0.4c-0.4,0-0.7,0.2-1,0.5L3.3,13.3c-0.8,0.8-0.2,2.1,0.9,2.1h12.6c0.7,0,1.3-0.6,1.3-1.3V2.9h12.6v30.2H5.4V18H2.9v16.3
		c0,0.7,0.6,1.3,1.3,1.3h27.6c0.7,0,1.3-0.6,1.3-1.3V1.7c0-0.7-0.6-1.3-1.3-1.3H16.7C16.7,0.4,16.7,0.4,16.7,0.4
		C16.7,0.4,16.7,0.4,16.7,0.4C16.7,0.4,16.7,0.4,16.7,0.4L16.7,0.4z"/>
</g>
</svg>
