<?xml version="1.0" encoding="utf-8"?>
<!-- Generator: Adobe Illustrator 27.9.0, SVG Export Plug-In . SVG Version: 6.00 Build 0)  -->
<svg version="1.1" id="Layer_1" xmlns="http://www.w3.org/2000/svg" xmlns:xlink="http://www.w3.org/1999/xlink" x="0px" y="0px"
	 viewBox="0 0 36 36" style="enable-background:new 0 0 36 36;" xml:space="preserve">
<style type="text/css">
	.st0{fill:#FFFFFF;}
</style>
<path class="st0" d="M4.9,28.9h26.2c0.6,0,1.1-0.5,1.1-1.1V11.4c0-0.6-0.5-1.1-1.1-1.1H20.9c-1.2,0-2.3-0.4-3.3-1.1l-2.6-2
	c-0.2-0.1-0.4-0.2-0.7-0.2H4.9c-0.6,0-1.1,0.5-1.1,1.1v19.7C3.8,28.4,4.3,28.9,4.9,28.9z M31.1,32.2H4.9c-2.4,0-4.4-2-4.4-4.4V8.2
	c0-2.4,2-4.4,4.4-4.4h9.5c0.9,0,1.9,0.3,2.6,0.9l2.6,2c0.4,0.3,0.8,0.4,1.3,0.4h10.2c2.4,0,4.4,2,4.4,4.4v16.4
	C35.5,30.2,33.5,32.2,31.1,32.2z"/>
</svg>
