<?xml version="1.0" encoding="utf-8"?>
<!-- Generator: Adobe Illustrator 27.9.0, SVG Export Plug-In . SVG Version: 6.00 Build 0)  -->
<svg version="1.1" id="Layer_1" xmlns="http://www.w3.org/2000/svg" xmlns:xlink="http://www.w3.org/1999/xlink" x="0px" y="0px"
	 viewBox="0 0 36 36" style="enable-background:new 0 0 36 36;" xml:space="preserve">
<style type="text/css">
	.st0{fill:#FFFFFF;}
</style>
<g>
	<path class="st0" d="M33,7.2H17.7c-0.8-1-1.7-2-1.9-2.3c-0.2-0.4-0.7-0.8-1.2-0.8H8.5c-0.4,0-0.8,0.2-1,0.5L5.4,7.2H3
		c-1.3,0-2.3,1-2.3,2.3v20.2c0,1.3,1,2.3,2.3,2.3H33c1.3,0,2.3-1,2.3-2.3V9.5C35.3,8.2,34.3,7.2,33,7.2z M31.2,23.6
		c0,0.1,0,0.1-0.1,0.2c0,0.1-0.1,0.1-0.2,0.1h-3.7v3.7c0,0.1,0,0.1-0.1,0.2c-0.1,0.1-0.1,0.1-0.2,0.1h-2.6c-0.1,0-0.1,0-0.2-0.1
		c-0.1-0.1-0.1-0.1-0.1-0.2v-3.7h-3.7c-0.1,0-0.1,0-0.2-0.1c-0.1-0.1-0.1-0.1-0.1-0.2V21c0-0.1,0.1-0.3,0.3-0.3h3.7V17
		c0-0.2,0.1-0.3,0.3-0.3l2.6,0c0.2,0,0.3,0.1,0.3,0.3v3.7h3.7c0.2,0,0.3,0.1,0.3,0.3L31.2,23.6z"/>
</g>
</svg>
