<?xml version="1.0" encoding="utf-8"?>
<!-- Generator: Adobe Illustrator 24.0.1, SVG Export Plug-In . SVG Version: 6.00 Build 0)  -->
<svg version="1.1" id="Capa_1" xmlns="http://www.w3.org/2000/svg" xmlns:xlink="http://www.w3.org/1999/xlink" x="0px" y="0px"
	 viewBox="0 0 36 36" style="enable-background:new 0 0 36 36;" xml:space="preserve">
<style type="text/css">
	.st0{fill:#FFFFFF;}
</style>
<g>
	<g>
		<path class="st0" d="M34.4,16.4L20.2,2.3c-0.6-0.6-1.4-0.9-2.2-0.9c-0.8,0-1.6,0.3-2.2,0.9L1.6,16.4c-0.9,0.9-1.2,2.2-0.7,3.4
			c0.5,1.2,1.6,1.9,2.9,1.9h1.8v10.1c0,1.5,1.2,2.7,2.7,2.7h2.4v-9.2c0-0.7,0.6-1.2,1.3-1.2h4.7c0.7,0,1.3,0.5,1.3,1.2v9.2h9.6
			c1.5,0,2.7-1.2,2.7-2.7V21.8h1.8c1.3,0,2.4-0.8,2.9-1.9C35.5,18.7,35.3,17.3,34.4,16.4z"/>
	</g>
</g>
</svg>
