<?xml version="1.0" encoding="utf-8"?>
<!-- Generator: Adobe Illustrator 24.0.1, SVG Export Plug-In . SVG Version: 6.00 Build 0)  -->
<svg version="1.1" id="Layer_1" xmlns="http://www.w3.org/2000/svg" xmlns:xlink="http://www.w3.org/1999/xlink" x="0px" y="0px"
	 viewBox="0 0 800 800" style="enable-background:new 0 0 800 800;" xml:space="preserve">
<style type="text/css">
	.st0{fill:#292D32;}
</style>
<g id="SVGRepo_bgCarrier">
</g>
<g id="SVGRepo_tracerCarrier">
</g>
<g>
	<polygon class="st0" points="417.1,202.4 343,239.5 347.3,273.7 413.8,220.4 	"/>
	<polygon class="st0" points="443.7,213.6 442.4,221 453.1,227.3 	"/>
	<polygon class="st0" points="319.8,281 295.2,332.9 329.8,411.8 322.4,301.8 	"/>
	<polygon class="st0" points="362.6,480.8 418.1,499 355.3,371 	"/>
	<polygon class="st0" points="354.1,304.4 445.6,491.2 484.7,278.9 428,245.2 	"/>
	<path class="st0" d="M533.3,65.7H266.7c-133.3,0-200,66.7-200,200v166.7c0,166.7,66.7,200,200,200h16.7c9.3,0,21.3,6,26.7,13.3
		l50,66.7c22,29.3,58,29.3,80,0l50-66.7c6.3-8.3,16.3-13.3,26.7-13.3h16.7c133.3,0,200-66.7,200-200V265.7
		C733.3,132.3,666.7,65.7,533.3,65.7z M514.2,274.3l-41.7,226.5c-0.3,1.4-0.8,2.8-1.4,4.1l-13.2,24.6c-3.2,6-10.3,8.9-16.8,6.7
		l-96.2-31.6c-3.8-1.3-6.9-4.1-8.5-7.7l-69.5-158.6c-1.6-3.7-1.6-8,0.2-11.7L315,225.3c1.3-2.8,3.6-5.1,6.4-6.6l108.3-54.2
		c6.3-3.2,14-1.2,18,4.7l64.3,94.6C514.1,266.9,514.8,270.7,514.2,274.3z"/>
</g>
</svg>
