<?xml version="1.0" encoding="utf-8"?>
<!-- Generator: Adobe Illustrator 24.0.1, SVG Export Plug-In . SVG Version: 6.00 Build 0)  -->
<svg version="1.1" id="Capa_1" xmlns="http://www.w3.org/2000/svg" xmlns:xlink="http://www.w3.org/1999/xlink" x="0px" y="0px"
	 viewBox="0 0 36 36" style="enable-background:new 0 0 36 36;" xml:space="preserve">
<style type="text/css">
	.st0{fill:#FFFFFF;}
</style>
<g>
	<path class="st0" d="M35.4,26.2c-1.3-5.7-5.5-13.6-18.1-15.3v-5c0-1-0.6-2-1.6-2.4c-1-0.4-2.1-0.2-2.8,0.6L1.5,15.6
		c-1.3,1.3-1.3,3.5,0,4.8l11.4,11.5c0.7,0.7,1.9,1,2.8,0.6c1-0.4,1.6-1.3,1.6-2.4v-4.9c4.3,0,10.5,0.6,14.9,3.3
		c0.7,0.5,1.7,0.4,2.4-0.1C35.3,27.9,35.6,27.1,35.4,26.2z"/>
</g>
</svg>
