<?xml version="1.0" encoding="utf-8"?>
<!-- Generator: Adobe Illustrator 24.0.1, SVG Export Plug-In . SVG Version: 6.00 Build 0)  -->
<svg version="1.1" id="Layer_1" xmlns="http://www.w3.org/2000/svg" xmlns:xlink="http://www.w3.org/1999/xlink" x="0px" y="0px"
	 viewBox="0 0 36 36" style="enable-background:new 0 0 36 36;" xml:space="preserve">
<style type="text/css">
	.st0{fill-rule:evenodd;clip-rule:evenodd;fill:#83CD29;}
	.st1{fill:#FFFFFF;}
</style>
<title>folder_type_light_node</title>
<g>
	<path class="st0" d="M18,0.9c9.4,0,17.1,7.6,17.1,17.1S27.4,35.1,18,35.1S0.9,27.4,0.9,18S8.6,0.9,18,0.9z"/>
	<path class="st1" d="M18,35.1c-0.5,0-0.9-0.1-1.3-0.4l-4.2-2.5c-0.6-0.3-0.3-0.5-0.1-0.5c0.7-0.2,1.3-0.5,1.9-0.9
		c0.1,0,0.2,0,0.3,0l3.2,1.9c0.1,0.1,0.3,0.1,0.4,0l12.5-7.2c0.1-0.1,0.2-0.2,0.2-0.3V10.8c0-0.1-0.1-0.3-0.2-0.3L18.2,3.2
		c-0.1-0.1-0.3-0.1-0.4,0L5.3,10.4c-0.1,0.1-0.2,0.2-0.2,0.3v14.4c0,0.1,0.1,0.3,0.2,0.3l3.4,2c1.9,0.9,3-0.2,3-1.3V12
		c0-0.2,0.2-0.4,0.4-0.4c0,0,0,0,0,0h1.6c0.2,0,0.4,0.2,0.4,0.4l0,0v14.2c0.2,1.9-1.1,3.6-3,3.9c-0.2,0-0.5,0-0.7,0
		c-1,0-2-0.3-2.9-0.8l-3.3-1.9c-0.8-0.5-1.3-1.3-1.3-2.3V10.8c0-0.9,0.5-1.8,1.3-2.3l12.5-7.2c0.8-0.4,1.8-0.4,2.6,0l12.5,7.2
		c0.8,0.5,1.3,1.3,1.3,2.3v14.4c0,0.9-0.5,1.8-1.3,2.3l-12.5,7.2C18.9,34.9,18.5,35,18,35.1z M22.2,25c4,0,6.2-1.6,6.2-4.3
		s-1.8-3.4-5.7-3.9c-3.9-0.5-4.3-0.8-4.3-1.7c0-0.8,0.3-1.8,3.2-1.8c2.6,0,3.5,0.6,3.9,2.3c0,0.2,0.2,0.3,0.4,0.3h1.6
		c0.2,0,0.4-0.2,0.4-0.4c0,0,0,0,0,0c-0.3-3-2.2-4.4-6.2-4.4c-3.6,0-5.7,1.5-5.7,4c0,2.7,2.1,3.5,5.5,3.8c4.1,0.4,4.4,1,4.4,1.8
		c0,1.4-1.1,2-3.8,2c-3.3,0-4-0.8-4.3-2.5c0-0.2-0.2-0.3-0.4-0.3H16c-0.2,0-0.4,0.2-0.4,0.4c0,0,0,0,0,0C15.6,22.5,16.8,25,22.2,25
		L22.2,25z"/>
</g>
</svg>
