<?xml version="1.0" encoding="utf-8"?>
<!-- Generator: Adobe Illustrator 27.9.0, SVG Export Plug-In . SVG Version: 6.00 Build 0)  -->
<svg version="1.1" id="Layer_1" xmlns="http://www.w3.org/2000/svg" xmlns:xlink="http://www.w3.org/1999/xlink" x="0px" y="0px"
	 viewBox="0 0 36 36" style="enable-background:new 0 0 36 36;" xml:space="preserve">
<style type="text/css">
	.st0{fill:#FFFFFF;}
</style>
<path class="st0" d="M5.1,16.1C6,9.8,11.5,5,18,5c3.6,0,6.8,1.5,9.2,3.8c0,0,0,0,0,0l0.5,0.5h-3.2c-1.2,0-2.2,1-2.2,2.2
	s1,2.2,2.2,2.2h8.7c1.2,0,2.2-1,2.2-2.2V2.8c0-1.2-1-2.2-2.2-2.2S31,1.6,31,2.8v3.6l-0.8-0.7C27.1,2.6,22.8,0.7,18,0.7
	C9.3,0.7,2.1,7.1,0.9,15.5c-0.2,1.2,0.6,2.3,1.8,2.4S5,17.3,5.1,16.1L5.1,16.1z M35.1,20.5c0.2-1.2-0.7-2.3-1.8-2.4
	c-1.2-0.2-2.3,0.7-2.4,1.8C30,26.1,24.5,31,18,31c-3.6,0-6.8-1.5-9.2-3.8c0,0,0,0,0,0l-0.5-0.5h3.2c1.2,0,2.2-1,2.2-2.2
	c0-1.2-1-2.2-2.2-2.2l-8.7,0c-0.6,0-1.1,0.2-1.5,0.6s-0.6,1-0.6,1.5l0.1,8.6c0,1.2,1,2.2,2.2,2.1s2.2-1,2.1-2.2l0-3.5l0.7,0.7
	c3.1,3.1,7.5,5.1,12.2,5.1C26.7,35.3,33.9,28.9,35.1,20.5z"/>
</svg>
