<?xml version="1.0" encoding="utf-8"?>
<!-- Generator: Adobe Illustrator 24.0.1, SVG Export Plug-In . SVG Version: 6.00 Build 0)  -->
<svg version="1.1" id="mdi-content-save-check" xmlns="http://www.w3.org/2000/svg" xmlns:xlink="http://www.w3.org/1999/xlink"
	 x="0px" y="0px" viewBox="0 0 36 36" style="enable-background:new 0 0 36 36;" xml:space="preserve">
<style type="text/css">
	.st0{fill:#FFFFFF;}
</style>
<path class="st0" d="M27.5,0.9H4.8c-2.1,0-3.8,1.7-3.8,3.8v26.5c0,2.1,1.7,3.8,3.8,3.8h12.9c-0.7-1.3-1.2-2.7-1.4-4.1
	c-3-1-4.6-4.2-3.5-7.2c0.8-2.3,2.9-3.8,5.3-3.8c0.8,0,1.7,0.2,2.4,0.5c4.3-3.4,10.5-3.2,14.6,0.5V8.5L27.5,0.9 M23.8,12.3h-19V4.7
	h18.9v7.6 M25.1,35.1L20,29.4l2.2-2.2l3,3l6.8-6.8l2.2,2.7L25.1,35.1"/>
</svg>
