<?xml version="1.0" encoding="utf-8"?>
<!-- Generator: Adobe Illustrator 24.0.1, SVG Export Plug-In . SVG Version: 6.00 Build 0)  -->
<svg version="1.1" id="Layer_1" xmlns="http://www.w3.org/2000/svg" xmlns:xlink="http://www.w3.org/1999/xlink" x="0px" y="0px"
	 viewBox="0 0 36 36" style="enable-background:new 0 0 36 36;" xml:space="preserve">
<style type="text/css">
	.st0{fill:#FFFFFF;}
</style>
<path class="st0" d="M5.7,4.5C5,4.5,4.5,5,4.5,5.7v24.6c0,0.7,0.6,1.2,1.2,1.2h24.6c0.7,0,1.2-0.6,1.2-1.2V11.6
	c0-0.3-0.1-0.6-0.4-0.9L25.4,5v6.9c0,1.4-1.1,2.5-2.5,2.5H10.6c-1.4,0-2.5-1.1-2.5-2.5V4.5H5.7z M11.8,4.5v6.2h9.8V4.5H11.8z
	 M0.8,5.7C0.8,3,3,0.8,5.7,0.8h18.7c1.3,0,2.6,0.5,3.5,1.4l5.9,5.9c0.9,0.9,1.4,2.2,1.4,3.5v18.7c0,2.7-2.2,4.9-4.9,4.9H5.7
	c-2.7,0-4.9-2.2-4.9-4.9V5.7z M13.1,22.9c0-2.7,2.2-4.9,4.9-4.9s4.9,2.2,4.9,4.9s-2.2,4.9-4.9,4.9S13.1,25.6,13.1,22.9z"/>
</svg>
