<?xml version="1.0" encoding="utf-8"?>
<!-- Generator: Adobe Illustrator 24.0.1, SVG Export Plug-In . SVG Version: 6.00 Build 0)  -->
<svg version="1.1" id="Layer_1" xmlns="http://www.w3.org/2000/svg" xmlns:xlink="http://www.w3.org/1999/xlink" x="0px" y="0px"
	 viewBox="0 0 36 36" style="enable-background:new 0 0 36 36;" xml:space="preserve">
<style type="text/css">
	.st0{fill:#FFFFFF;}
</style>
<path class="st0" d="M5.7,0.8C3,0.8,0.8,3,0.8,5.7v24.5c0,2.7,2.2,4.9,4.9,4.9h24.5c2.7,0,4.9-2.2,4.9-4.9V11.7
	c0-1.3-0.5-2.6-1.4-3.5l-5.9-5.9c-0.9-0.9-2.2-1.4-3.5-1.4L5.7,0.8L5.7,0.8z M8.2,8.2c0-1.4,1.1-2.5,2.5-2.5H23
	c1.4,0,2.5,1.1,2.5,2.5v4.9c0,1.4-1.1,2.5-2.5,2.5H10.6c-1.4,0-2.5-1.1-2.5-2.5L8.2,8.2L8.2,8.2z M18,20.5c2.7,0,4.9,2.2,4.9,4.9
	s-2.2,4.9-4.9,4.9s-4.9-2.2-4.9-4.9S15.3,20.5,18,20.5z"/>
</svg>
