<?xml version="1.0" encoding="utf-8"?>
<!-- Generator: Adobe Illustrator 27.9.0, SVG Export Plug-In . SVG Version: 6.00 Build 0)  -->
<svg version="1.1" id="Layer_1" xmlns="http://www.w3.org/2000/svg" xmlns:xlink="http://www.w3.org/1999/xlink" x="0px" y="0px"
	 viewBox="0 0 36 36" style="enable-background:new 0 0 36 36;" xml:space="preserve">
<style type="text/css">
	.st0{fill:#FFFFFF;}
</style>
<g id="SVGRepo_bgCarrier">
</g>
<g id="SVGRepo_tracerCarrier">
</g>
<path class="st0" d="M33.4,35.1c-0.4,0-0.9-0.2-1.2-0.5l-6.3-6.3c-2.7,2.2-6.1,3.4-9.6,3.4c-4.1,0-8-1.6-10.9-4.5
	c-2.9-2.9-4.5-6.8-4.5-10.9s1.6-8,4.5-10.9c2.9-2.9,6.8-4.5,10.9-4.5s8,1.6,10.9,4.5c2.9,2.9,4.5,6.8,4.5,10.9
	c0,3.5-1.2,6.9-3.4,9.6l6.3,6.3c0.7,0.7,0.7,1.8,0,2.4C34.3,35,33.9,35.1,33.4,35.1z M16.3,4.3c-6.6,0-12,5.4-12,12
	c0,6.6,5.4,12,12,12c6.6,0,12-5.4,12-12C28.3,9.7,22.9,4.3,16.3,4.3z M24.9,18c-0.9,0-1.7-0.8-1.7-1.7c0-3.8-3.1-6.9-6.9-6.9
	c-0.9,0-1.7-0.8-1.7-1.7S15.3,6,16.3,6c5.7,0,10.3,4.6,10.3,10.3C26.6,17.2,25.8,18,24.9,18z"/>
</svg>
