<?xml version="1.0" encoding="utf-8"?>
<!-- Generator: Adobe Illustrator 27.9.0, SVG Export Plug-In . SVG Version: 6.00 Build 0)  -->
<svg version="1.1" id="Layer_1" xmlns="http://www.w3.org/2000/svg" xmlns:xlink="http://www.w3.org/1999/xlink" x="0px" y="0px"
	 viewBox="0 0 36 36" style="enable-background:new 0 0 36 36;" xml:space="preserve">
<style type="text/css">
	.st0{fill:#FFFFFF;}
</style>
<g>
	<path class="st0" d="M20.5,1.3l0.8-0.1c-0.1-0.4-0.4-0.7-0.8-0.7V1.3z M15.5,1.3V0.4c-0.4,0-0.8,0.3-0.8,0.7L15.5,1.3z M21,4.9
		L20.1,5c0,0.3,0.3,0.6,0.6,0.7L21,4.9z M25.1,6.7l-0.4,0.7c0.3,0.2,0.7,0.2,1,0L25.1,6.7z M28.1,4.4l0.6-0.6
		c-0.3-0.3-0.8-0.3-1.1-0.1L28.1,4.4z M31.6,7.9l0.7,0.5c0.3-0.3,0.2-0.8-0.1-1.1L31.6,7.9z M29.3,10.9l-0.7-0.5
		c-0.2,0.3-0.2,0.7,0,1L29.3,10.9z M31.1,15l-0.8,0.2c0.1,0.3,0.4,0.6,0.7,0.6L31.1,15z M34.7,15.5h0.8c0-0.4-0.3-0.8-0.7-0.8
		L34.7,15.5z M34.7,20.5l0.1,0.8c0.4-0.1,0.7-0.4,0.7-0.8H34.7z M31.1,21L31,20.1c-0.3,0-0.6,0.3-0.7,0.6L31.1,21z M29.3,25.1
		l-0.7-0.4c-0.2,0.3-0.2,0.7,0,1L29.3,25.1z M31.6,28.1l0.6,0.6c0.3-0.3,0.3-0.8,0.1-1.1L31.6,28.1z M28.1,31.6l-0.5,0.7
		c0.3,0.3,0.8,0.2,1.1-0.1L28.1,31.6z M25.1,29.3l0.5-0.7c-0.3-0.2-0.7-0.2-1,0L25.1,29.3z M21,31.1l-0.2-0.8
		c-0.3,0.1-0.6,0.4-0.6,0.7L21,31.1z M20.5,34.7v0.8c0.4,0,0.8-0.3,0.8-0.7L20.5,34.7z M15.5,34.7l-0.8,0.1c0.1,0.4,0.4,0.7,0.8,0.7
		V34.7z M15,31.1l0.8-0.1c0-0.3-0.3-0.6-0.6-0.7L15,31.1z M10.9,29.3l0.4-0.7c-0.3-0.2-0.7-0.2-1,0L10.9,29.3z M7.9,31.6l-0.6,0.6
		c0.3,0.3,0.8,0.3,1.1,0.1L7.9,31.6z M4.4,28.1l-0.7-0.5c-0.3,0.3-0.2,0.8,0.1,1.1L4.4,28.1z M6.7,25.1l0.7,0.5c0.2-0.3,0.2-0.7,0-1
		L6.7,25.1z M4.9,21l0.8-0.2c-0.1-0.3-0.4-0.6-0.7-0.6L4.9,21z M1.3,20.5H0.4c0,0.4,0.3,0.8,0.7,0.8L1.3,20.5z M1.3,15.5l-0.1-0.8
		c-0.4,0.1-0.7,0.4-0.7,0.8H1.3z M4.9,15L5,15.9c0.3,0,0.6-0.3,0.7-0.6L4.9,15z M6.7,10.9l0.7,0.4c0.2-0.3,0.2-0.7,0-1L6.7,10.9z
		 M4.4,7.9L3.8,7.4C3.5,7.6,3.5,8.1,3.7,8.5L4.4,7.9z M7.9,4.4l0.5-0.7c-0.3-0.2-0.8-0.2-1,0.1L7.9,4.4z M10.9,6.7l-0.5,0.7
		c0.3,0.2,0.7,0.2,1,0L10.9,6.7z M15,4.9l0.2,0.8c0.3-0.1,0.6-0.4,0.6-0.7L15,4.9z M20.5,0.4h-5v1.7h5V0.4z M21.8,4.8l-0.5-3.7
		l-1.7,0.2L20.1,5L21.8,4.8z M25.6,6c-1.3-0.8-2.8-1.5-4.4-1.8l-0.4,1.6c1.4,0.3,2.7,0.9,3.9,1.6L25.6,6z M25.6,7.3L28.5,5l-1-1.3
		L24.6,6L25.6,7.3z M27.5,5L31,8.5l1.2-1.2l-3.5-3.5L27.5,5z M30.9,7.4l-2.3,2.9l1.3,1l2.3-2.9L30.9,7.4z M31.9,14.8
		c-0.4-1.6-1-3.1-1.8-4.4l-1.4,0.9c0.7,1.2,1.3,2.5,1.6,3.9L31.9,14.8z M34.8,14.7l-3.7-0.5L31,15.9l3.7,0.5L34.8,14.7z M35.6,20.5
		v-5h-1.7v5H35.6z M31.2,21.8l3.7-0.5l-0.2-1.7L31,20.1L31.2,21.8z M30,25.6c0.8-1.3,1.5-2.8,1.8-4.4l-1.6-0.4
		c-0.3,1.4-0.9,2.7-1.6,3.9L30,25.6z M32.3,27.5L30,24.6l-1.3,1l2.3,2.9L32.3,27.5z M28.6,32.2l3.5-3.5L31,27.5L27.5,31L28.6,32.2z
		 M24.6,30l2.9,2.3l1-1.3l-2.9-2.3L24.6,30z M21.2,31.9c1.6-0.4,3.1-1,4.4-1.8l-0.9-1.4c-1.2,0.7-2.5,1.3-3.9,1.6L21.2,31.9z
		 M21.3,34.8l0.5-3.7L20.1,31l-0.5,3.7L21.3,34.8z M15.5,35.6h5v-1.7h-5V35.6z M14.2,31.2l0.5,3.7l1.7-0.2L15.9,31L14.2,31.2z
		 M10.4,30c1.3,0.8,2.8,1.5,4.4,1.8l0.4-1.6c-1.4-0.3-2.7-0.9-3.9-1.6L10.4,30z M8.5,32.3l2.9-2.3l-1-1.3L7.5,31L8.5,32.3z
		 M3.8,28.6l3.5,3.5L8.5,31L5,27.5L3.8,28.6z M6,24.6l-2.3,2.9l1.3,1l2.3-2.9L6,24.6z M4.1,21.2c0.4,1.6,1,3.1,1.8,4.4l1.4-0.9
		c-0.7-1.2-1.3-2.5-1.6-3.9L4.1,21.2z M1.2,21.3l3.7,0.5L5,20.1l-3.7-0.5L1.2,21.3z M0.4,15.5v5h1.7v-5H0.4z M4.8,14.2l-3.7,0.5
		l0.2,1.7L5,15.9L4.8,14.2z M6,10.4c-0.8,1.3-1.5,2.8-1.8,4.4l1.6,0.4c0.3-1.4,0.9-2.7,1.6-3.9L6,10.4z M3.7,8.5L6,11.4l1.3-1
		l-2.2-3L3.7,8.5z M7.4,3.8L3.8,7.4L5,8.5L8.5,5L7.4,3.8z M11.4,6L8.5,3.7L7.5,5l2.9,2.3L11.4,6z M14.8,4.1c-1.6,0.4-3.1,1-4.4,1.8
		l0.9,1.4c1.2-0.7,2.5-1.3,3.9-1.6L14.8,4.1z M14.7,1.2l-0.5,3.7L15.9,5l0.5-3.7L14.7,1.2z"/>
	<path class="st0" d="M18,25.5c-4.2,0-7.5-3.4-7.5-7.5c0-4.2,3.4-7.5,7.5-7.5c4.2,0,7.5,3.4,7.5,7.5C25.5,22.2,22.2,25.5,18,25.5z
		 M18,12.1c-3.2,0-5.9,2.6-5.9,5.9c0,3.2,2.6,5.9,5.9,5.9c3.2,0,5.9-2.6,5.9-5.9C23.9,14.8,21.2,12.1,18,12.1z"/>
</g>
</svg>
