<?xml version="1.0" encoding="utf-8"?>
<!-- Generator: Adobe Illustrator 27.9.0, SVG Export Plug-In . SVG Version: 6.00 Build 0)  -->
<svg version="1.1"
	 id="svg8" xmlns:sodipodi="http://sodipodi.sourceforge.net/DTD/sodipodi-0.dtd" xmlns:svg="http://www.w3.org/2000/svg" xmlns:rdf="http://www.w3.org/1999/02/22-rdf-syntax-ns#" xmlns:inkscape="http://www.inkscape.org/namespaces/inkscape" xmlns:dc="http://purl.org/dc/elements/1.1/" xmlns:cc="http://creativecommons.org/ns#"
	 xmlns="http://www.w3.org/2000/svg" xmlns:xlink="http://www.w3.org/1999/xlink" x="0px" y="0px" viewBox="0 0 36 36"
	 style="enable-background:new 0 0 36 36;" xml:space="preserve">
<style type="text/css">
	.st0{fill:#FFFFFF;}
</style>
<sodipodi:namedview  bordercolor="#666666" borderopacity="1.0" id="base" inkscape:current-layer="layer1" inkscape:cx="-18.191154" inkscape:cy="8.2503461" inkscape:document-rotation="0" inkscape:document-units="mm" inkscape:pageopacity="0" inkscape:pageshadow="2" inkscape:snap-nodes="false" inkscape:snap-object-midpoints="true" inkscape:window-height="1027" inkscape:window-maximized="1" inkscape:window-width="1920" inkscape:window-x="-8" inkscape:window-y="-8" inkscape:zoom="11.2" pagecolor="#808080" showgrid="true" units="px">
	<inkscape:grid  empspacing="4" id="grid833" type="xygrid"></inkscape:grid>
</sodipodi:namedview>
<g id="layer1" inkscape:groupmode="layer" inkscape:label="settings">
	<path id="settings" inkscape:connector-curvature="0" inkscape:label="settings" class="st0" d="M15.5,0.6l-0.4,4.7
		c-1.5,0.4-2.7,0.6-4,1.5L6.8,3.1L3.1,6.8l3.7,4.3c-0.8,1.3-1.1,2.4-1.5,4l-4.7,0.4V18v2.5l4.7,0.4c0.4,1.5,0.6,2.7,1.5,4l-3.7,4.3
		l3.7,3.7l4.3-3.7c1.3,0.8,2.4,1.1,4,1.5l0.4,4.7H18h2.5l0.4-4.7c1.5-0.4,2.7-0.6,4-1.5l4.3,3.7l3.7-3.7l-3.7-4.3
		c0.8-1.3,1.1-2.4,1.5-4l4.7-0.4V18v-2.5l-4.7-0.4c-0.4-1.5-0.6-2.7-1.5-4l3.7-4.3l-3.7-3.7l-4.3,3.7c-1.3-0.8-2.4-1.1-4-1.5
		l-0.4-4.7H18H15.5z M18,13c2.8,0,5,2.2,5,5c0,2.8-2.2,5-5,5c-2.8,0-5-2.2-5-5C13,15.2,15.2,13,18,13z"/>
</g>
</svg>
