<?xml version="1.0" encoding="utf-8"?>
<!-- Generator: Adobe Illustrator 27.9.0, SVG Export Plug-In . SVG Version: 6.00 Build 0)  -->
<svg version="1.1" id="Capa_1" xmlns="http://www.w3.org/2000/svg" xmlns:xlink="http://www.w3.org/1999/xlink" x="0px" y="0px"
	 viewBox="0 0 36 36" style="enable-background:new 0 0 36 36;" xml:space="preserve">
<style type="text/css">
	.st0{fill:#FFFFFF;}
</style>
<g>
	<g>
		<g>
			<path class="st0" d="M18.1,18.6c0.6-0.9,1-1.9,1.2-3h3v0v-3.1h-3c-0.2-1.1-0.6-2.1-1.2-3l2.1-2.1L18,5.2l-2.1,2.1
				c-0.9-0.6-1.9-1-3-1.2V3H9.8v3c-1.1,0.2-2.1,0.6-3,1.2L4.6,5.2L2.4,7.3l2.1,2.1c-0.6,0.9-1,1.9-1.2,3h-3v3.1h3
				c0.2,1.1,0.6,2.1,1.2,3l-2.1,2.1l2.2,2.2l2.1-2.1c0.9,0.6,1.9,1,3,1.2v3h3.1v-3c1.1-0.2,2.1-0.6,3-1.2l2.1,2.1l2.2-2.2L18.1,18.6
				z M11.3,17.4C9.5,17.4,8,15.9,8,14c0-1.9,1.5-3.4,3.4-3.4c1.9,0,3.4,1.5,3.4,3.4C14.7,15.9,13.2,17.4,11.3,17.4z"/>
			<path class="st0" d="M35.7,25.8v-2.3h-2.3c-0.2-0.8-0.5-1.6-0.9-2.3l1.6-1.6l-1.7-1.7l-1.6,1.6c-0.7-0.5-1.5-0.8-2.3-0.9v-2.3
				h-2.3v2.3c-0.8,0.2-1.6,0.5-2.3,0.9l-1.6-1.6l-1.7,1.7l1.6,1.6c-0.5,0.7-0.8,1.5-0.9,2.3h-2.3v2.3h2.3c0.2,0.8,0.5,1.6,0.9,2.3
				l-1.6,1.6l1.7,1.7l1.6-1.6c0.7,0.5,1.5,0.8,2.3,0.9V33h2.3v-2.3c0.8-0.2,1.6-0.5,2.3-0.9l1.6,1.6l1.7-1.7l-1.6-1.6
				c0.5-0.7,0.8-1.5,0.9-2.3L35.7,25.8L35.7,25.8z M27.3,27.2c-1.4,0-2.6-1.1-2.6-2.6c0-1.4,1.2-2.6,2.6-2.6c1.4,0,2.6,1.1,2.6,2.6
				C29.9,26,28.7,27.2,27.3,27.2z"/>
		</g>
	</g>
</g>
</svg>
