<?xml version="1.0" encoding="utf-8"?>
<!-- Generator: Adobe Illustrator 27.9.0, SVG Export Plug-In . SVG Version: 6.00 Build 0)  -->
<svg version="1.1" id="Layer_1" xmlns="http://www.w3.org/2000/svg" xmlns:xlink="http://www.w3.org/1999/xlink" x="0px" y="0px"
	 viewBox="0 0 36 36" style="enable-background:new 0 0 36 36;" xml:space="preserve">
<style type="text/css">
	.st0{fill-rule:evenodd;clip-rule:evenodd;fill:#1C274C;}
</style>
<path class="st0" d="M18,35.5c-8.3,0-12.4,0-15-2.6c-2.6-2.6-2.6-6.7-2.6-15c0-8.3,0-12.4,2.6-15c2.6-2.6,6.7-2.6,15-2.6
	c8.3,0,12.4,0,15,2.6c2.6,2.6,2.6,6.7,2.6,15c0,8.3,0,12.4-2.6,15C30.4,35.5,26.3,35.5,18,35.5z M25.1,12.7c0.5,0.5,0.5,1.3,0,1.9
	l-8.8,8.8c-0.5,0.5-1.3,0.5-1.9,0l-3.5-3.5c-0.5-0.5-0.5-1.3,0-1.9c0.5-0.5,1.3-0.5,1.9,0l2.6,2.6l7.8-7.8
	C23.7,12.2,24.6,12.2,25.1,12.7z"/>
</svg>
