<?xml version="1.0" encoding="utf-8"?>
<!-- Generator: Adobe Illustrator 27.9.0, SVG Export Plug-In . SVG Version: 6.00 Build 0)  -->
<svg version="1.1" id="Layer_1" xmlns="http://www.w3.org/2000/svg" xmlns:xlink="http://www.w3.org/1999/xlink" x="0px" y="0px"
	 viewBox="0 0 36 36" style="enable-background:new 0 0 36 36;" xml:space="preserve">
<style type="text/css">
	.st0{fill:#FFFFFF;}
</style>
<g>
	<path class="st0" d="M18,35.4c-3.9,0-6.8,0-9-0.3c-2.6-0.3-4.3-1.1-5.6-2.4C2,31.3,1.3,29.6,0.9,27c-0.3-2.3-0.3-5.1-0.3-9
		s0-6.8,0.3-9C1.3,6.4,2,4.7,3.3,3.3s3.1-2,5.7-2.4c2.3-0.3,5.1-0.3,9-0.3s6.8,0,9,0.3c2.6,0.3,4.3,1.1,5.6,2.4
		C34,4.7,34.7,6.4,35.1,9c0.3,2.3,0.3,5.1,0.3,9s0,6.8-0.3,9c-0.3,2.6-1.1,4.3-2.4,5.6c-1.3,1.3-3.1,2.1-5.6,2.4
		C24.8,35.4,21.9,35.4,18,35.4z M18,3C10.7,3,7.1,3,5,5s-2,5.7-2,13s0,10.9,2,13c2,2,5.7,2,13,2s10.9,0,13-2c2-2,2-5.7,2-13
		s0-10.9-2-13C28.9,3,25.3,3,18,3z"/>
</g>
</svg>
