<?xml version="1.0" encoding="utf-8"?>
<!-- Generator: Adobe Illustrator 27.9.0, SVG Export Plug-In . SVG Version: 6.00 Build 0)  -->
<svg version="1.1" id="Layer_1" xmlns="http://www.w3.org/2000/svg" xmlns:xlink="http://www.w3.org/1999/xlink" x="0px" y="0px"
	 viewBox="0 0 36 36" style="enable-background:new 0 0 36 36;" xml:space="preserve">
<style type="text/css">
	.st0{fill-rule:evenodd;clip-rule:evenodd;fill:#FFFFFF;}
</style>
<path class="st0" d="M18,35.4c-8.2,0-12.3,0-14.8-2.6C0.6,30.3,0.6,26.2,0.6,18s0-12.3,2.6-14.8S9.8,0.6,18,0.6s12.3,0,14.8,2.6
	c2.6,2.6,2.6,6.6,2.6,14.8s0,12.3-2.6,14.8C30.3,35.4,26.2,35.4,18,35.4z M25,12.9c0.5,0.5,0.5,1.3,0,1.9l-8.7,8.7
	c-0.5,0.5-1.3,0.5-1.9,0L11,20c-0.5-0.5-0.5-1.3,0-1.9c0.5-0.5,1.3-0.5,1.9,0l2.6,2.6l7.7-7.7C23.6,12.4,24.5,12.4,25,12.9z"/>
</svg>
