<?xml version="1.0" encoding="utf-8"?>
<!-- Generator: Adobe Illustrator 24.0.1, SVG Export Plug-In . SVG Version: 6.00 Build 0)  -->
<svg version="1.1" id="Layer_1" xmlns="http://www.w3.org/2000/svg" xmlns:xlink="http://www.w3.org/1999/xlink" x="0px" y="0px"
	 viewBox="0 0 36 36" style="enable-background:new 0 0 36 36;" xml:space="preserve">
<style type="text/css">
	.st0{fill:#A86749;}
	.st1{fill:#3783FF;}
	.st2{fill:#4DE94C;}
	.st3{fill:#FFEE00;}
	.st4{fill:#4C1AC6;}
	.st5{fill:#2A3E4F;}
	.st6{fill:#7E8C8D;}
	.st7{fill:#F89B36;}
	.st8{fill:#FF8C00;}
	.st9{fill:#8F9FA0;}
	.st10{fill:#E9BB42;}
	.st11{fill:#32495D;}
	.st12{fill:#F60000;}
</style>
<title>folder_type_theme</title>
<g>
	<path class="st0" d="M30.2,10.4c0.9,0.6,1.6,1.3,2.3,2.1c2.3,2.5,2.4,6.3,0.3,9c-1.2,1.4-2.9,2.3-4.7,2.6c-1.7,0.3-3.3,0.2-5-0.1
		c-0.8-0.1-1.6-0.2-2.4-0.3c-0.7-0.1-1.4,0.3-1.5,1.1v0c-0.1,0.4,0,0.8,0.3,1.1c0.4,0.6,0.8,1.1,1.3,1.6c0.4,0.4,0.7,0.9,0.8,1.5
		c0.2,0.6-0.2,1.2-0.7,1.4c-1.5,0.7-3,0.9-4.6,0.8c-4.1-0.2-8-1.5-11.4-3.8C2.5,26,1,23.6,0.4,21c-0.5-2.3,0.1-4.8,1.5-6.7
		c1.6-2.3,3.8-4.2,6.4-5.3C13.7,6.3,19.9,6,25.5,8.1C25.6,8.1,30.1,10.5,30.2,10.4z"/>
	<path class="st1" d="M6.6,19c0.8,0,1.7,0.2,2.4,0.8c0.7,0.5,1,1.5,0.5,2.3c-0.1,0.2-0.3,0.4-0.5,0.5c-1.4,1-3.3,1-4.7,0
		c-0.7-0.5-1-1.5-0.5-2.3C3.8,20,4,19.9,4.2,19.7C4.9,19.2,5.7,19,6.6,19z"/>
	<path class="st2" d="M6.1,17.2c-0.6,0-1.2-0.2-1.7-0.5c-0.6-0.4-0.8-1.2-0.4-1.8c0.1-0.2,0.3-0.3,0.4-0.4c1.1-0.8,2.6-0.8,3.6,0
		c0.6,0.4,0.7,1.2,0.3,1.8c-0.1,0.1-0.2,0.3-0.3,0.3C7.5,17,6.8,17.2,6.1,17.2z"/>
	<path class="st3" d="M10.8,12.8c-0.6,0-1.2-0.2-1.6-0.6c-0.4-0.4-0.5-1-0.1-1.5c0,0,0.1-0.1,0.1-0.1c0.9-0.8,2.2-0.8,3.1,0
		c0.4,0.4,0.5,1,0.1,1.5c-0.1,0.1-0.1,0.1-0.2,0.2C11.9,12.7,11.3,12.8,10.8,12.8z"/>
	<path class="st4" d="M13.4,23c1,0,1.9,0.3,2.6,0.8c0.8,0.5,1.1,1.6,0.6,2.5c-0.1,0.2-0.3,0.4-0.6,0.6c-1.6,1.1-3.7,1.1-5.3,0
		c-0.8-0.5-1.1-1.6-0.6-2.5c0.1-0.2,0.3-0.4,0.6-0.6C11.5,23.3,12.4,23,13.4,23z"/>
	<path class="st5" d="M35.7,5.4c-0.4,1-1,2-1.7,2.8c-1.7,2.1-3.6,4.1-5.5,6c-0.2,0.2-0.5,0.4-0.8,0.3c-0.1,0-0.3-0.1-0.4-0.2
		c-0.4-0.4-0.8-0.8-1.2-1.2c-0.3-0.2-0.3-0.7-0.1-1c0,0,0-0.1,0.1-0.1c0,0,0.1-0.1,0.1-0.1C28,10,30,8.2,32.2,6.5
		c0.7-0.5,1.4-1,2.1-1.4C34.5,5,34.8,4.9,35,4.8c0.3-0.1,0.6,0,0.7,0.3c0,0,0,0,0,0v0v0L35.7,5.4z"/>
	<path class="st6" d="M19.5,19.4C19.5,19.4,19.5,19.4,19.5,19.4c1.5,0.9,3.4,0.6,4.4-0.7c0.5-0.5,0.7-1.1,0.6-1.8
		c-0.1-0.8-0.7-1.4-1.5-1.5c-0.5-0.1-1,0.2-1.4,0.6c-0.2,0.3-0.4,0.6-0.4,1C21,18,20.4,18.9,19.5,19.4L19.5,19.4z"/>
	<path class="st7" d="M27.1,14.7c-0.5-0.5-1-1-1.5-1.4c-0.1-0.2-0.3-0.2-0.5-0.1c0,0,0,0,0,0h0c0,0-0.1,0.1-0.1,0.1
		c-0.4,0.5-0.8,1.1-1.2,1.6c-0.1,0.1-0.1,0.3,0,0.4l0,0c0.4,0.4,0.7,0.7,1.1,1.1c0.1,0.1,0.3,0.2,0.5,0.1c0,0,0,0,0,0l0,0
		c0.6-0.4,1.1-0.8,1.7-1.2c0.1-0.1,0.1-0.2,0.2-0.3C27.2,14.9,27.2,14.8,27.1,14.7z"/>
	<path class="st8" d="M16.3,10.8c-0.5,0-0.9-0.1-1.3-0.5C14.7,10,14.7,9.4,15,9.1C15,9,15,9,15.1,9c0.7-0.6,1.8-0.6,2.5,0
		c0.4,0.3,0.4,0.9,0.1,1.3c0,0-0.1,0.1-0.1,0.1C17.2,10.7,16.8,10.8,16.3,10.8z"/>
	<path class="st9" d="M19.5,19.4c0,0,5.8-1.7,3.9-3.9c0,0-1.3-0.6-2.1,1.5C20.9,18,20.3,18.8,19.5,19.4z"/>
	<path class="st10" d="M24.4,15.9l2-1.9l-0.7-0.7c-0.1-0.2-0.3-0.2-0.5-0.1c0,0,0,0,0,0l0,0c0,0-0.1,0.1-0.1,0.1
		c-0.3,0.4-1.7,1.6-1.2,2.1L24.4,15.9z"/>
	<path class="st11" d="M26.7,13.7l9-8.6c0,0,0.1-0.6-0.7-0.3c-0.8,0.3-1.2-0.3-9,7.2c-0.3,0.2-0.3,0.6-0.1,0.9
		c0,0.1,0.1,0.1,0.1,0.1L26.7,13.7z"/>
	<path class="st12" d="M22,11.2c-0.5,0-0.9-0.1-1.3-0.5c-0.4-0.3-0.4-0.9-0.1-1.3c0,0,0,0,0.1-0.1c0.7-0.6,1.8-0.6,2.5,0
		c0.4,0.3,0.4,0.9,0.1,1.3c0,0-0.1,0.1-0.1,0.1C22.9,11.1,22.5,11.2,22,11.2z"/>
</g>
</svg>
