<?xml version="1.0" encoding="utf-8"?>
<!-- Generator: Adobe Illustrator 27.9.0, SVG Export Plug-In . SVG Version: 6.00 Build 0)  -->
<svg version="1.1" id="Layer_1" xmlns="http://www.w3.org/2000/svg" xmlns:xlink="http://www.w3.org/1999/xlink" x="0px" y="0px"
	 viewBox="0 0 36 36" style="enable-background:new 0 0 36 36;" xml:space="preserve">
<style type="text/css">
	.st0{fill:#FFFFFF;}
</style>
<path class="st0" d="M20.3,2c0.3-0.8,1.1-1.3,2-1.3h10.9c1.2,0,2.2,1,2.2,2.2v10.9c0,0.9-0.5,1.7-1.3,2s-1.7,0.1-2.4-0.5l-3.9-3.9
	L17.4,21.7c-0.8,0.8-2.2,0.8-3.1,0c-0.8-0.8-0.8-2.2,0-3.1L24.7,8.2l-3.9-3.9C20.2,3.7,20,2.8,20.3,2L20.3,2z M0.6,12.6
	c0-3,2.4-5.4,5.4-5.4h5.4c1.2,0,2.2,1,2.2,2.2s-1,2.2-2.2,2.2H6C5.4,11.5,5,12,5,12.6V30C5,30.6,5.4,31,6,31h17.4
	c0.6,0,1.1-0.5,1.1-1.1v-5.4c0-1.2,1-2.2,2.2-2.2s2.2,1,2.2,2.2V30c0,3-2.4,5.4-5.4,5.4H6c-3,0-5.4-2.4-5.4-5.4V12.6z"/>
</svg>
