<?xml version="1.0" encoding="utf-8"?>
<!-- Generator: Adobe Illustrator 27.9.0, SVG Export Plug-In . SVG Version: 6.00 Build 0)  -->
<svg version="1.1" id="Layer_1" xmlns="http://www.w3.org/2000/svg" xmlns:xlink="http://www.w3.org/1999/xlink" x="0px" y="0px"
	 viewBox="0 0 36 36" style="enable-background:new 0 0 36 36;" xml:space="preserve">
<style type="text/css">
	.st0{fill:#FFFFFF;}
</style>
<path class="st0" d="M4.2,29.6c-1.5-0.4-2.7-1.6-3.1-3.1C0.4,23.7,0.4,18,0.4,18s0-5.7,0.7-8.5C1.5,8,2.7,6.8,4.2,6.4
	C7,5.6,18,5.6,18,5.6s11.1,0,13.8,0.7c1.5,0.4,2.7,1.6,3.1,3.1c0.7,2.7,0.7,8.5,0.7,8.5s0,5.7-0.7,8.5c-0.4,1.5-1.6,2.7-3.1,3.1
	C29,30.4,18,30.4,18,30.4S7,30.4,4.2,29.6z M14.5,23.3l9.1-5.3l-9.1-5.3V23.3z"/>
</svg>
