<?xml version="1.0" encoding="utf-8"?>
<!-- Generator: Adobe Illustrator 27.9.0, SVG Export Plug-In . SVG Version: 6.00 Build 0)  -->
<svg version="1.1" id="meteor-icon-kit__solid-books"
	 xmlns="http://www.w3.org/2000/svg" xmlns:xlink="http://www.w3.org/1999/xlink" x="0px" y="0px" viewBox="0 0 36 36"
	 style="enable-background:new 0 0 36 36;" xml:space="preserve">
<style type="text/css">
	.st0{fill-rule:evenodd;clip-rule:evenodd;fill:#758CA3;}
</style>
<path class="st0" d="M2.3,7.6h7c1,0,1.7,0.8,1.7,1.7v24.3c0,1-0.8,1.7-1.7,1.7h-7c-1,0-1.7-0.8-1.7-1.7V9.3C0.6,8.3,1.4,7.6,2.3,7.6
	z M4.1,23.2v7c0,1,0.8,1.7,1.7,1.7s1.7-0.8,1.7-1.7v-7c0-1-0.8-1.7-1.7-1.7S4.1,22.3,4.1,23.2z M14.5,0.6h7c1,0,1.7,0.8,1.7,1.7
	v31.3c0,1-0.8,1.7-1.7,1.7h-7c-1,0-1.7-0.8-1.7-1.7V2.3C12.8,1.4,13.6,0.6,14.5,0.6z M16.3,19.7v10.4c0,1,0.8,1.7,1.7,1.7
	s1.7-0.8,1.7-1.7V19.7c0-1-0.8-1.7-1.7-1.7S16.3,18.8,16.3,19.7z M26.7,4.1h7c1,0,1.7,0.8,1.7,1.7v27.8c0,1-0.8,1.7-1.7,1.7h-7
	c-1,0-1.7-0.8-1.7-1.7V5.8C25,4.9,25.7,4.1,26.7,4.1z M28.4,26.7v3.5c0,1,0.8,1.7,1.7,1.7c1,0,1.7-0.8,1.7-1.7v-3.5
	c0-1-0.8-1.7-1.7-1.7C29.2,25,28.4,25.7,28.4,26.7z"/>
</svg>
