<?xml version="1.0" encoding="utf-8"?>
<!-- Generator: Adobe Illustrator 27.9.0, SVG Export Plug-In . SVG Version: 6.00 Build 0)  -->
<svg version="1.1" id="Layer_1" xmlns="http://www.w3.org/2000/svg" xmlns:xlink="http://www.w3.org/1999/xlink" x="0px" y="0px"
	 viewBox="0 0 36 36" style="enable-background:new 0 0 36 36;" xml:space="preserve">
<style type="text/css">
	.st0{fill:#FFFFFF;}
</style>
<path class="st0" d="M33.4,0.5H2.6c-1.2,0-2.2,1-2.2,2.2v30.7c0,1.2,1,2.2,2.2,2.2h30.7c1.2,0,2.2-1,2.2-2.2V2.6
	C35.5,1.4,34.6,0.5,33.4,0.5z M5.9,34.5H2.6c-0.6,0-1.1-0.5-1.1-1.1v-3.8h4.4V34.5z M5.9,28.4H1.5V24h4.4V28.4z M5.9,22.9H1.5v-4.4
	h4.4V22.9z M5.9,17.5H1.5v-4.4h4.4V17.5z M5.9,12H1.5V7.6h4.4V12z M5.9,6.5H1.5V2.6C1.5,2,2,1.5,2.6,1.5h3.3V6.5z M28.4,18.5H7.6
	C7.3,18.5,7,18.3,7,18s0.2-0.5,0.5-0.5h20.8c0.3,0,0.5,0.2,0.5,0.5S28.7,18.5,28.4,18.5z M34.5,33.4c0,0.6-0.5,1.1-1.1,1.1h-3.3
	v-4.9h4.4V33.4z M34.5,28.4h-4.4V24h4.4V28.4z M34.5,22.9h-4.4v-4.4h4.4V22.9z M34.5,17.5h-4.4v-4.4h4.4V17.5z M34.5,12h-4.4V7.6
	h4.4V12z M34.5,6.5h-4.4V1.5h3.3c0.6,0,1.1,0.5,1.1,1.1V6.5z"/>
</svg>
