<?xml version="1.0" encoding="utf-8"?>
<!-- Generator: Adobe Illustrator 27.9.0, SVG Export Plug-In . SVG Version: 6.00 Build 0)  -->
<svg version="1.1" id="Layer_1" xmlns="http://www.w3.org/2000/svg" xmlns:xlink="http://www.w3.org/1999/xlink" x="0px" y="0px"
	 viewBox="0 0 36 36" style="enable-background:new 0 0 36 36;" xml:space="preserve">
<style type="text/css">
	.st0{fill:#FFFFFF;}
</style>
<g id="_xD83D__xDD0D_-Product-Icons">
	<g id="ic_fluent_movies_and_tv_24_filled">
		<path id="_xD83C__xDFA8_-Color" class="st0" d="M32,3.7L32.1,4l1,3.4C33.3,8,32.9,8.7,32.3,9h-0.1l-18.8,5.4H33
			c0.7,0,1.2,0.5,1.3,1.1v0.2v14.9c0,2.6-2,4.7-4.5,4.8h-0.3h-22c-2.6,0-4.7-2-4.8-4.5v-0.3V15.9l-0.9-3.2c-0.7-2.5,0.6-5,3-5.9
			l0.3-0.1l21.1-6C28.6,0,31.2,1.4,32,3.7z M8.4,8.5L5.8,9.3C4.7,9.6,4,10.7,4.2,11.8L4.3,12l0.6,2.1L5.4,14L8.4,8.5z M16.7,6.1
			l-4.8,1.4l-3,5.4l4.8-1.4L16.7,6.1z M25.1,3.8l-4.8,1.4l-3,5.4l4.8-1.4L25.1,3.8z M28.3,3.3l-2.7,4.8l4.5-1.3l-0.6-2.1
			C29.4,4.1,28.9,3.6,28.3,3.3z"/>
	</g>
</g>
</svg>
