<?xml version="1.0" encoding="utf-8"?>
<!-- Generator: Adobe Illustrator 27.9.0, SVG Export Plug-In . SVG Version: 6.00 Build 0)  -->
<svg version="1.1" id="Layer_1" xmlns="http://www.w3.org/2000/svg" xmlns:xlink="http://www.w3.org/1999/xlink" x="0px" y="0px"
	 viewBox="0 0 36 36" style="enable-background:new 0 0 36 36;" xml:space="preserve">
<style type="text/css">
	.st0{fill:#FFFFFF;}
</style>
<g>
	<path class="st0" d="M22.7,0.8h-9.4v7.5h9.4V0.8z"/>
	<path class="st0" d="M25.3,0.8v7.5H35C34.1,3.6,30.6,0.9,25.3,0.8z"/>
	<path class="st0" d="M0.8,10.9v14.3c0,6.2,3.7,10,10,10h14.4c6.2,0,10-3.7,10-10V10.9H0.8z M22.2,25.2l-3.6,2.1
		c-0.8,0.4-1.5,0.7-2.2,0.7c-0.5,0-1-0.1-1.4-0.4c-1-0.6-1.5-1.7-1.5-3.2v-4.1c0-1.5,0.5-2.7,1.5-3.2c1-0.6,2.3-0.5,3.6,0.3l3.6,2.1
		c1.3,0.8,2,1.8,2,3S23.5,24.4,22.2,25.2z"/>
	<path class="st0" d="M10.7,0.8C5.4,0.8,1.9,3.6,1,8.3h9.7V0.8z"/>
</g>
</svg>
