<?xml version="1.0" encoding="utf-8"?>
<!-- Generator: Adobe Illustrator 27.9.0, SVG Export Plug-In . SVG Version: 6.00 Build 0)  -->
<svg version="1.1" id="Layer_1" xmlns="http://www.w3.org/2000/svg" xmlns:xlink="http://www.w3.org/1999/xlink" x="0px" y="0px"
	 viewBox="0 0 36 36" style="enable-background:new 0 0 36 36;" xml:space="preserve">
<style type="text/css">
	.st0{fill:#FFFFFF;}
</style>
<path class="st0" d="M18,35.4C8.4,35.4,0.6,27.6,0.6,18S8.4,0.6,18,0.6S35.4,8.4,35.4,18S27.6,35.4,18,35.4z M26,12.9
	c0.3-0.3,0.3-0.9,0-1.2l-1.8-1.8c-0.3-0.3-0.9-0.3-1.2,0l-5,5l-5-5c-0.3-0.3-0.9-0.3-1.2,0L10,11.7c-0.3,0.3-0.3,0.9,0,1.2l5,5l-5,5
	c-0.3,0.3-0.3,0.9,0,1.2l1.8,1.8c0.3,0.3,0.9,0.3,1.2,0l5-5l5,5c0.3,0.3,0.9,0.3,1.2,0l1.8-1.8c0.3-0.3,0.3-0.9,0-1.2l-5-5L26,12.9
	L26,12.9z"/>
</svg>
